<svg width="375" height="812" viewBox="0 0 375 812" fill="none" xmlns="http://www.w3.org/2000/svg">
<rect width="375" height="812" fill="#F34723"/>
<path d="M199.1 328.105C184.7 318.105 179.85 325.88 179.85 325.88C179.85 325.88 174.3 333.154 188.725 343.154C193.325 346.354 198.75 348.279 203.6 349.578C206.05 346.354 209.275 343.729 212.975 341.954C209.725 337.429 205.175 332.304 199.1 328.105Z" fill="white" fill-opacity="0.8"/>
<path d="M150.65 372.252C144.775 372.252 140 377.027 140 382.927C140 388.001 143.525 392.251 148.275 393.326C150.925 387.676 155.425 383.077 161 380.327C159.825 375.677 155.65 372.252 150.65 372.252Z" fill="white" fill-opacity="0.8"/>
<path d="M224.15 334.405C220.872 334.405 217.684 334.94 214.622 335.943C210.828 331.243 206.594 327.209 201.953 323.999C194.916 319.112 188.625 317.2 183.269 318.303C178.65 319.253 176.375 322.1 175.734 323.04C175.081 323.971 173.234 327.096 173.966 331.743C174.822 337.158 178.828 342.38 185.869 347.261C188.763 349.27 192.178 350.961 196.109 352.417C194.269 356.417 193.297 360.763 193.297 365.282C193.297 367.754 193.597 370.163 194.153 372.506H173.147C169.841 372.506 166.625 373.044 163.503 374.016C160.637 369.885 155.903 367.257 150.647 367.257C142.019 367.254 135 374.288 135 382.928C135 388.346 137.719 393.155 141.994 395.977C141.15 398.889 140.675 401.899 140.675 404.999V433C140.675 435.759 142.912 438 145.675 438H229.65C232.412 438 234.65 435.759 234.65 433V394.277C246.644 389.924 255 378.334 255 365.279C255 348.255 241.159 334.405 224.15 334.405ZM183.925 328.818C183.966 328.784 183.991 328.765 184.006 328.755C184.009 328.737 184.019 328.705 184.037 328.655C184.997 327.793 188.703 326.974 196.256 332.221C199.6 334.533 202.722 337.355 205.575 340.639C205.375 340.789 205.194 340.958 204.994 341.111C204.772 341.286 204.556 341.464 204.341 341.645C203.581 342.28 202.847 342.942 202.156 343.648C202.088 343.717 202.019 343.777 201.95 343.842C201.938 343.855 201.925 343.867 201.912 343.88C197.712 342.542 194.316 340.952 191.575 339.049C184.003 333.796 183.456 330.027 183.925 328.818ZM150.65 377.253C152.006 377.253 153.275 377.734 154.266 378.559C154.238 378.578 154.216 378.603 154.188 378.619C153.675 378.987 153.191 379.387 152.7 379.787C152.469 379.975 152.225 380.147 152 380.344C151.297 380.95 150.619 381.584 149.969 382.247C149.897 382.322 149.831 382.403 149.759 382.478C149.188 383.072 148.631 383.684 148.106 384.321C147.919 384.553 147.75 384.796 147.569 385.028C147.178 385.528 146.788 386.028 146.425 386.549C146.406 386.581 146.381 386.606 146.359 386.637C145.503 385.64 144.997 384.34 144.997 382.928C145 379.803 147.534 377.253 150.65 377.253ZM224.65 428H203.628C205.044 425.354 205.85 422.332 205.85 419.126C205.85 408.72 197.394 400.252 187 400.252C178.062 400.252 170.294 406.595 168.525 415.336C167.978 418.042 169.728 420.679 172.434 421.229C175.141 421.766 177.778 420.023 178.328 417.32C179.156 413.226 182.803 410.251 187 410.251C191.881 410.251 195.85 414.232 195.85 419.126C195.85 424.019 191.881 428 187 428H150.675V405.002C150.675 401.655 151.391 398.446 152.803 395.452C154.697 391.409 157.766 388.012 161.547 385.724C161.944 385.484 162.353 385.271 162.766 385.056C162.909 384.981 163.05 384.89 163.197 384.818C166.334 383.281 169.684 382.503 173.147 382.503H198.525C198.581 382.587 198.653 382.659 198.709 382.743C199.356 383.687 200.047 384.593 200.787 385.45C200.869 385.543 200.956 385.637 201.041 385.731C205.228 390.471 210.769 393.799 216.919 395.277C216.95 395.283 216.981 395.293 217.012 395.299C218.194 395.58 219.391 395.793 220.609 395.93C220.728 395.946 220.841 395.952 220.959 395.965C222.013 396.071 223.075 396.146 224.15 396.146C224.244 396.146 224.331 396.13 224.422 396.13C224.5 396.13 224.572 396.143 224.65 396.14V428ZM228.553 385.678C227.147 385.993 225.662 386.156 224.15 386.156C222.222 386.156 220.338 385.893 218.534 385.39C213.128 383.884 208.484 380.24 205.756 375.147C204.125 372.094 203.3 368.775 203.3 365.282C203.3 360.654 204.778 356.276 207.581 352.607C209.55 350.017 212.162 347.895 215.144 346.464C217.975 345.102 221.003 344.408 224.15 344.408C235.647 344.408 245 353.773 245 365.282C245 375.047 238.103 383.621 228.553 385.678Z" fill="white"/>
<path d="M229.656 356.344C226.25 356.344 223.475 359.119 223.475 362.528C223.475 365.934 226.246 368.709 229.656 368.709C233.062 368.709 235.837 365.937 235.837 362.528C235.834 359.119 233.065 356.344 229.656 356.344Z" fill="white"/>
<path d="M129.175 462.09H122.665V483H129.175C136.045 483 140.275 479.07 140.275 472.59C140.275 466.11 136.045 462.09 129.175 462.09ZM125.395 480.75V464.31H129.175C134.635 464.31 137.485 467.49 137.485 472.59C137.485 477.69 134.635 480.75 129.175 480.75H125.395ZM150.626 468.6C153.446 468.6 155.846 470.37 155.816 473.58H145.436C145.736 470.37 147.956 468.6 150.626 468.6ZM158.306 477.93H155.366C154.766 479.7 153.206 480.96 150.746 480.96C147.956 480.96 145.616 479.13 145.406 475.8H158.546C158.606 475.23 158.636 474.75 158.636 474.15C158.636 469.65 155.516 466.29 150.746 466.29C145.946 466.29 142.616 469.56 142.616 474.75C142.616 479.97 146.066 483.27 150.746 483.27C154.826 483.27 157.466 480.93 158.306 477.93ZM174.029 483H176.729V473.31C176.729 468.6 173.819 466.26 170.009 466.26C167.789 466.26 165.809 467.19 164.729 468.9V466.56H161.999V483H164.729V473.91C164.729 470.37 166.649 468.63 169.439 468.63C172.199 468.63 174.029 470.34 174.029 473.7V483ZM187.939 468.6C190.759 468.6 193.159 470.37 193.129 473.58H182.749C183.049 470.37 185.269 468.6 187.939 468.6ZM195.619 477.93H192.679C192.079 479.7 190.519 480.96 188.059 480.96C185.269 480.96 182.929 479.13 182.719 475.8H195.859C195.919 475.23 195.949 474.75 195.949 474.15C195.949 469.65 192.829 466.29 188.059 466.29C183.259 466.29 179.929 469.56 179.929 474.75C179.929 479.97 183.379 483.27 188.059 483.27C192.139 483.27 194.779 480.93 195.619 477.93ZM205.552 479.88L200.392 466.56H197.362L203.992 482.82L200.752 490.74H203.572L213.472 466.56H210.652L205.552 479.88ZM229.116 478.14C229.026 471.9 219.966 473.79 219.966 471.12C219.966 470.31 220.626 469.83 221.826 469.83C223.266 469.83 224.136 470.58 224.286 471.72H229.026C228.696 468.42 226.296 466.02 221.976 466.02C217.596 466.02 215.166 468.36 215.166 471.21C215.166 477.36 224.286 475.41 224.286 478.11C224.286 478.86 223.596 479.46 222.276 479.46C220.866 479.46 219.816 478.68 219.696 477.51H214.626C214.866 480.75 217.866 483.24 222.336 483.24C226.536 483.24 229.116 481.05 229.116 478.14ZM232.015 483H237.145V466.26H232.015V483ZM234.595 464.52C236.395 464.52 237.625 463.29 237.625 461.76C237.625 460.2 236.395 458.97 234.595 458.97C232.765 458.97 231.535 460.2 231.535 461.76C231.535 463.29 232.765 464.52 234.595 464.52ZM252.533 466.26H239.753V470.49H246.653L239.693 478.92V483H252.683V478.77H245.423L252.533 470.34V466.26Z" fill="white"/>
</svg>
