<svg width="131" height="33" viewBox="0 0 131 33" fill="none" xmlns="http://www.w3.org/2000/svg">
<path d="M7.17464 4.09H0.664645V25H7.17464C14.0446 25 18.2746 21.07 18.2746 14.59C18.2746 8.11 14.0446 4.09 7.17464 4.09ZM3.39465 22.75V6.31H7.17464C12.6346 6.31 15.4846 9.49 15.4846 14.59C15.4846 19.69 12.6346 22.75 7.17464 22.75H3.39465ZM28.6256 10.6C31.4456 10.6 33.8456 12.37 33.8156 15.58H23.4356C23.7356 12.37 25.9556 10.6 28.6256 10.6ZM36.3056 19.93H33.3656C32.7656 21.7 31.2056 22.96 28.7456 22.96C25.9556 22.96 23.6156 21.13 23.4056 17.8H36.5456C36.6056 17.23 36.6356 16.75 36.6356 16.15C36.6356 11.65 33.5156 8.29 28.7456 8.29C23.9456 8.29 20.6156 11.56 20.6156 16.75C20.6156 21.97 24.0656 25.27 28.7456 25.27C32.8256 25.27 35.4656 22.93 36.3056 19.93ZM52.0291 25H54.7291V15.31C54.7291 10.6 51.8191 8.26 48.0091 8.26C45.7891 8.26 43.8091 9.19 42.7291 10.9V8.56H39.9991V25H42.7291V15.91C42.7291 12.37 44.6491 10.63 47.4391 10.63C50.1991 10.63 52.0291 12.34 52.0291 15.7V25ZM65.9385 10.6C68.7586 10.6 71.1586 12.37 71.1286 15.58H60.7486C61.0485 12.37 63.2686 10.6 65.9385 10.6ZM73.6186 19.93H70.6786C70.0786 21.7 68.5186 22.96 66.0586 22.96C63.2686 22.96 60.9286 21.13 60.7186 17.8H73.8585C73.9186 17.23 73.9486 16.75 73.9486 16.15C73.9486 11.65 70.8286 8.29 66.0586 8.29C61.2586 8.29 57.9285 11.56 57.9285 16.75C57.9285 21.97 61.3786 25.27 66.0586 25.27C70.1386 25.27 72.7786 22.93 73.6186 19.93ZM83.5521 21.88L78.3921 8.56H75.3621L81.9921 24.82L78.7521 32.74H81.5721L91.4721 8.56H88.6521L83.5521 21.88ZM107.116 20.14C107.026 13.9 97.9664 15.79 97.9664 13.12C97.9664 12.31 98.6264 11.83 99.8264 11.83C101.266 11.83 102.136 12.58 102.286 13.72H107.026C106.696 10.42 104.296 8.02 99.9764 8.02C95.5964 8.02 93.1664 10.36 93.1664 13.21C93.1664 19.36 102.286 17.41 102.286 20.11C102.286 20.86 101.596 21.46 100.276 21.46C98.8664 21.46 97.8164 20.68 97.6964 19.51H92.6264C92.8664 22.75 95.8664 25.24 100.336 25.24C104.536 25.24 107.116 23.05 107.116 20.14ZM110.015 25H115.145V8.26H110.015V25ZM112.595 6.52C114.395 6.52 115.625 5.29 115.625 3.76C115.625 2.2 114.395 0.969998 112.595 0.969998C110.765 0.969998 109.535 2.2 109.535 3.76C109.535 5.29 110.765 6.52 112.595 6.52ZM130.533 8.26H117.753V12.49H124.653L117.693 20.92V25H130.683V20.77H123.423L130.533 12.34V8.26Z" fill="white"/>
</svg>
